<svg xmlns="http://www.w3.org/2000/svg" viewBox="0 0 293.04 276.99"><g id="Layer_2" data-name="Layer 2"><g id="图层_1" data-name="图层 1"><path d="M34.48,166.93c7-4.66,10.74-16,12.94-24.18.24-.93.48-1.88.73-2.9,2.13-8.61,4.78-19.33,13.5-19.46a9.12,9.12,0,0,1,3.79.83,11.16,11.16,0,0,1,3.37,2.38c3.16,3.18,5,8.24,5,13.89v.18a30,30,0,0,1-2.86,12.16,32.46,32.46,0,0,1-7.08,10l-8.26.15h-.44v8.13h26V160H75.56a37.27,37.27,0,0,0,5.18-9.77A39.16,39.16,0,0,0,82.86,138,37.37,37.37,0,0,0,81.24,126a22.8,22.8,0,0,0-4.14-7.41A19.64,19.64,0,0,0,70,113,20.23,20.23,0,0,0,61.5,111a18.16,18.16,0,0,0-5.16.64,19.78,19.78,0,0,0-5.22,2.46c-7.22,4.63-10.29,15.83-12.53,24l-.5,1.81c-.16.58-.31,1.15-.45,1.7l0,.16a74.88,74.88,0,0,1-3.9,11.69,13.61,13.61,0,0,1-3.78,5,11.73,11.73,0,0,1-5.23,2.43,11.31,11.31,0,0,1-5.67-.43,14.56,14.56,0,0,1-5.58-3.56A16.86,16.86,0,0,1,10,150.87,25.31,25.31,0,0,1,8.78,144c0-.48,0-1,0-1.48a35.56,35.56,0,0,1,1.31-9.63c.12-.36.24-.73.39-1.15.28-.77.57-1.5.87-2.18a32.58,32.58,0,0,1,6.38-9.52l.12-.14c.43-.43.9-.87,1.38-1.29l.36-.32.66-.55c.1-.06.23-.17.23-.16l7.27-.08.44,0v-8.2H1v8.22H8.15a33.08,33.08,0,0,0-5.48,9.71,43.25,43.25,0,0,0-2.67,14v.59c0,4,0,13.51,6.35,21.08A22.08,22.08,0,0,0,12.78,168a22.41,22.41,0,0,0,7.48,2.38,20.75,20.75,0,0,0,7.56-.35A17.58,17.58,0,0,0,34.48,166.93Z"/><path d="M258.56,112.94c-7,4.66-10.74,16-12.94,24.18-.24.93-.48,1.88-.73,2.9-2.13,8.61-4.78,19.34-13.5,19.46a9.2,9.2,0,0,1-3.8-.83,11.25,11.25,0,0,1-3.36-2.38c-3.16-3.18-5-8.24-5-13.89v-.18A30.2,30.2,0,0,1,222.12,130a32.29,32.29,0,0,1,7.08-10l8.26-.15h.44v-8.13h-26v8.15h5.59a37.21,37.21,0,0,0-5.19,9.78,39.34,39.34,0,0,0-2.12,12.21,37.61,37.61,0,0,0,1.62,11.94,23,23,0,0,0,4.15,7.41,19.55,19.55,0,0,0,7.08,5.65,20.19,20.19,0,0,0,8.51,1.94,18.28,18.28,0,0,0,5.17-.64,19.59,19.59,0,0,0,5.21-2.46c7.22-4.63,10.29-15.83,12.54-24l.5-1.81c.16-.58.31-1.15.45-1.7l0-.16a75.09,75.09,0,0,1,3.91-11.69,13.61,13.61,0,0,1,3.78-5,11.76,11.76,0,0,1,5.22-2.43,11.35,11.35,0,0,1,5.68.43,14.56,14.56,0,0,1,5.58,3.56,16.86,16.86,0,0,1,3.46,6.06,25.38,25.38,0,0,1,1.19,6.84c0,.48,0,1,0,1.49A35.11,35.11,0,0,1,283,147c-.11.36-.24.73-.38,1.15-.28.77-.57,1.5-.88,2.18a32.36,32.36,0,0,1-6.37,9.52l-.13.14c-.43.43-.89.87-1.37,1.29l-.37.32c-.22.19-.44.38-.66.55l-.22.17-7.28.07-.44,0v8.2H292v-8.22h-7.15a33.18,33.18,0,0,0,5.48-9.71,43.51,43.51,0,0,0,2.67-14V138c0-4,0-13.51-6.36-21.08a21.9,21.9,0,0,0-6.42-5.08,22.41,22.41,0,0,0-7.48-2.38,21,21,0,0,0-7.57.35A17.46,17.46,0,0,0,258.56,112.94Z"/><path d="M151,42.48a20.31,20.31,0,0,0,8.6-1.82c4.64-2.36,7.68-5.14,9.56-8.76a23.1,23.1,0,0,0,2.52-10.54,21.89,21.89,0,0,0-6.37-15.43C160.88,1.94,155.4,0,148.52,0h-36.6V8.67h7.68V69.93h-8.35v7.39h25.1V69.93h-7.81V42.6h12.4l17.72,27.33h-8v7.39h26.95V69.93h-8.53ZM128.54,8.32h19.58c5.93,0,10.51,2.28,12.87,6.41A13.43,13.43,0,0,1,160.78,28c-2.26,3.84-4.95,6.21-11.4,6.21H128.54Z"/><path d="M158.4,234.56c5.83-3.38,9-8.72,9-15.14,0-13-10.56-21.4-26.92-21.4-7,0-16.64,2.06-23.21,11.33l-.27.37,7,4.53.24-.33c3.91-5.3,9.08-7.76,16.27-7.76,11.22,0,18.19,4.75,18.19,12.41,0,8-7.67,12.11-15.25,12.11H132.21v8.62h11.86c5.83,0,10.78,1.79,13.94,5a12.45,12.45,0,0,1,3.49,9.24c-.52,9.09-8.24,14.73-20.17,14.73-8.45,0-16-3.07-21.18-8.64l-.75-.34-6,6.57.85.21A38.58,38.58,0,0,0,141.33,277c17.13,0,29.1-9.57,29.1-23.28C170.43,244.69,166.06,237.76,158.4,234.56Z"/><rect x="30.73" y="58.85" width="77.21" height="7.51" rx="3.75" transform="translate(-23.96 57.85) rotate(-39.16)" fill="#0072ff" stroke="#0072ff" stroke-miterlimit="10" stroke-width="0.59"/><rect x="214.73" y="24" width="7.51" height="77.2" rx="3.75" transform="translate(31.93 192.41) rotate(-50.82)" fill="#0072ff" stroke="#0072ff" stroke-miterlimit="10" stroke-width="0.59"/><rect x="179.88" y="207.4" width="77.21" height="7.51" rx="3.75" transform="translate(-84.27 185.42) rotate(-39.16)" fill="#0072ff" stroke="#0072ff" stroke-miterlimit="10" stroke-width="0.59"/><rect x="65.58" y="172.55" width="7.51" height="77.21" rx="3.75" transform="translate(-138.14 131.5) rotate(-50.82)" fill="#0072ff" stroke="#0072ff" stroke-miterlimit="10" stroke-width="0.59"/></g></g></svg>